<mxfile host="app.diagrams.net" modified="2023-03-07T09:48:59.782Z" agent="5.0 (Macintosh; Intel Mac OS X 10_15_7) AppleWebKit/537.36 (KHTML, like Gecko) Chrome/110.0.0.0 Safari/537.36" etag="SaGRBWiI0iENoqQgwcD_" version="20.8.21" type="github">
  <diagram name="Page-1" id="cOLVrWmJBsqYHHGzK49I">
    <mxGraphModel dx="1434" dy="916" grid="1" gridSize="10" guides="1" tooltips="1" connect="1" arrows="1" fold="1" page="1" pageScale="1" pageWidth="827" pageHeight="1169" math="0" shadow="0">
      <root>
        <mxCell id="0" />
        <mxCell id="1" parent="0" />
        <mxCell id="kobAwIntnLrDHxQ9oPHN-21" value="" style="ellipse;whiteSpace=wrap;html=1;strokeColor=#7F00FF;fillColor=#FFFFCC;" vertex="1" parent="1">
          <mxGeometry x="280" y="400" width="280" height="160" as="geometry" />
        </mxCell>
        <mxCell id="kobAwIntnLrDHxQ9oPHN-23" style="edgeStyle=orthogonalEdgeStyle;rounded=0;orthogonalLoop=1;jettySize=auto;html=1;exitX=1;exitY=1;exitDx=0;exitDy=0;strokeColor=#000000;strokeWidth=1;" edge="1" parent="1" source="kobAwIntnLrDHxQ9oPHN-1">
          <mxGeometry relative="1" as="geometry">
            <mxPoint x="330" y="420" as="targetPoint" />
          </mxGeometry>
        </mxCell>
        <mxCell id="kobAwIntnLrDHxQ9oPHN-1" value="OC" style="ellipse;whiteSpace=wrap;html=1;aspect=fixed;strokeColor=#00FFFF;" vertex="1" parent="1">
          <mxGeometry x="160" y="170" width="200" height="200" as="geometry" />
        </mxCell>
        <mxCell id="kobAwIntnLrDHxQ9oPHN-4" value="" style="ellipse;whiteSpace=wrap;html=1;aspect=fixed;fillColor=#0000FF;" vertex="1" parent="kobAwIntnLrDHxQ9oPHN-1">
          <mxGeometry x="110" y="30" width="60" height="60" as="geometry" />
        </mxCell>
        <mxCell id="kobAwIntnLrDHxQ9oPHN-3" value="" style="ellipse;whiteSpace=wrap;html=1;aspect=fixed;fillColor=#FF0000;" vertex="1" parent="kobAwIntnLrDHxQ9oPHN-1">
          <mxGeometry x="30" y="110" width="60" height="60" as="geometry" />
        </mxCell>
        <mxCell id="kobAwIntnLrDHxQ9oPHN-24" style="edgeStyle=orthogonalEdgeStyle;rounded=0;orthogonalLoop=1;jettySize=auto;html=1;exitX=0;exitY=1;exitDx=0;exitDy=0;entryX=1;entryY=0;entryDx=0;entryDy=0;strokeColor=#000000;strokeWidth=1;" edge="1" parent="1" source="kobAwIntnLrDHxQ9oPHN-2" target="kobAwIntnLrDHxQ9oPHN-21">
          <mxGeometry relative="1" as="geometry" />
        </mxCell>
        <mxCell id="kobAwIntnLrDHxQ9oPHN-2" value="AJO" style="ellipse;whiteSpace=wrap;html=1;aspect=fixed;strokeColor=#7F00FF;" vertex="1" parent="1">
          <mxGeometry x="490" y="180" width="200" height="200" as="geometry" />
        </mxCell>
        <mxCell id="kobAwIntnLrDHxQ9oPHN-5" value="" style="ellipse;whiteSpace=wrap;html=1;aspect=fixed;fillColor=#0000FF;" vertex="1" parent="kobAwIntnLrDHxQ9oPHN-2">
          <mxGeometry x="110" y="110" width="60" height="60" as="geometry" />
        </mxCell>
        <mxCell id="kobAwIntnLrDHxQ9oPHN-6" value="" style="ellipse;whiteSpace=wrap;html=1;aspect=fixed;fillColor=#00FF00;" vertex="1" parent="kobAwIntnLrDHxQ9oPHN-2">
          <mxGeometry x="30" y="30" width="60" height="60" as="geometry" />
        </mxCell>
        <mxCell id="kobAwIntnLrDHxQ9oPHN-7" value="" style="ellipse;whiteSpace=wrap;html=1;aspect=fixed;fillColor=#FF0000;" vertex="1" parent="1">
          <mxGeometry x="310" y="460" width="60" height="60" as="geometry" />
        </mxCell>
        <mxCell id="kobAwIntnLrDHxQ9oPHN-8" value="" style="ellipse;whiteSpace=wrap;html=1;aspect=fixed;fillColor=#0000FF;" vertex="1" parent="1">
          <mxGeometry x="390" y="460" width="60" height="60" as="geometry" />
        </mxCell>
        <mxCell id="kobAwIntnLrDHxQ9oPHN-9" value="" style="ellipse;whiteSpace=wrap;html=1;aspect=fixed;fillColor=#00FF00;" vertex="1" parent="1">
          <mxGeometry x="470" y="460" width="60" height="60" as="geometry" />
        </mxCell>
        <mxCell id="kobAwIntnLrDHxQ9oPHN-11" value="" style="ellipse;whiteSpace=wrap;html=1;aspect=fixed;fillColor=#FF0000;" vertex="1" parent="1">
          <mxGeometry x="190" y="650" width="60" height="60" as="geometry" />
        </mxCell>
        <mxCell id="kobAwIntnLrDHxQ9oPHN-12" value="" style="ellipse;whiteSpace=wrap;html=1;aspect=fixed;fillColor=#0000FF;" vertex="1" parent="1">
          <mxGeometry x="270" y="650" width="60" height="60" as="geometry" />
        </mxCell>
        <mxCell id="kobAwIntnLrDHxQ9oPHN-13" value="" style="ellipse;whiteSpace=wrap;html=1;aspect=fixed;fillColor=#00FF00;" vertex="1" parent="1">
          <mxGeometry x="520" y="650" width="60" height="60" as="geometry" />
        </mxCell>
        <mxCell id="kobAwIntnLrDHxQ9oPHN-14" value="" style="ellipse;whiteSpace=wrap;html=1;aspect=fixed;fillColor=#0000FF;" vertex="1" parent="1">
          <mxGeometry x="600" y="650" width="60" height="60" as="geometry" />
        </mxCell>
        <mxCell id="kobAwIntnLrDHxQ9oPHN-15" value="" style="endArrow=none;html=1;rounded=0;strokeWidth=5;" edge="1" parent="1">
          <mxGeometry width="50" height="50" relative="1" as="geometry">
            <mxPoint x="275" y="705" as="sourcePoint" />
            <mxPoint x="325" y="655" as="targetPoint" />
          </mxGeometry>
        </mxCell>
        <mxCell id="kobAwIntnLrDHxQ9oPHN-16" value="" style="endArrow=none;html=1;rounded=0;strokeWidth=5;" edge="1" parent="1">
          <mxGeometry width="50" height="50" relative="1" as="geometry">
            <mxPoint x="270" y="655" as="sourcePoint" />
            <mxPoint x="320" y="710" as="targetPoint" />
          </mxGeometry>
        </mxCell>
        <mxCell id="kobAwIntnLrDHxQ9oPHN-17" value="" style="endArrow=none;html=1;rounded=0;strokeWidth=5;" edge="1" parent="1">
          <mxGeometry width="50" height="50" relative="1" as="geometry">
            <mxPoint x="605" y="705" as="sourcePoint" />
            <mxPoint x="655" y="655" as="targetPoint" />
          </mxGeometry>
        </mxCell>
        <mxCell id="kobAwIntnLrDHxQ9oPHN-18" value="" style="endArrow=none;html=1;rounded=0;strokeWidth=5;" edge="1" parent="1">
          <mxGeometry width="50" height="50" relative="1" as="geometry">
            <mxPoint x="600" y="655" as="sourcePoint" />
            <mxPoint x="650" y="710" as="targetPoint" />
          </mxGeometry>
        </mxCell>
        <mxCell id="kobAwIntnLrDHxQ9oPHN-19" value="" style="endArrow=classic;html=1;rounded=0;strokeWidth=1;exitX=0.5;exitY=1;exitDx=0;exitDy=0;entryX=1;entryY=0.5;entryDx=0;entryDy=0;strokeColor=#FF0000;" edge="1" parent="1" source="kobAwIntnLrDHxQ9oPHN-11" target="kobAwIntnLrDHxQ9oPHN-2">
          <mxGeometry width="50" height="50" relative="1" as="geometry">
            <mxPoint x="350" y="490" as="sourcePoint" />
            <mxPoint x="400" y="440" as="targetPoint" />
            <Array as="points">
              <mxPoint x="220" y="760" />
              <mxPoint x="720" y="760" />
              <mxPoint x="720" y="280" />
            </Array>
          </mxGeometry>
        </mxCell>
        <mxCell id="kobAwIntnLrDHxQ9oPHN-20" value="" style="endArrow=classic;html=1;rounded=0;strokeWidth=1;exitX=0.5;exitY=1;exitDx=0;exitDy=0;entryX=0;entryY=0.5;entryDx=0;entryDy=0;strokeColor=#00FF00;" edge="1" parent="1" source="kobAwIntnLrDHxQ9oPHN-13" target="kobAwIntnLrDHxQ9oPHN-1">
          <mxGeometry width="50" height="50" relative="1" as="geometry">
            <mxPoint x="350" y="490" as="sourcePoint" />
            <mxPoint x="400" y="440" as="targetPoint" />
            <Array as="points">
              <mxPoint x="550" y="840" />
              <mxPoint x="120" y="840" />
              <mxPoint x="120" y="270" />
            </Array>
          </mxGeometry>
        </mxCell>
        <mxCell id="kobAwIntnLrDHxQ9oPHN-25" value="" style="endArrow=classic;html=1;rounded=0;strokeColor=#000000;strokeWidth=1;exitX=0.5;exitY=1;exitDx=0;exitDy=0;" edge="1" parent="1" source="kobAwIntnLrDHxQ9oPHN-8">
          <mxGeometry width="50" height="50" relative="1" as="geometry">
            <mxPoint x="340" y="560" as="sourcePoint" />
            <mxPoint x="320" y="640" as="targetPoint" />
          </mxGeometry>
        </mxCell>
        <mxCell id="kobAwIntnLrDHxQ9oPHN-26" value="" style="endArrow=classic;html=1;rounded=0;strokeColor=#000000;strokeWidth=1;exitX=0.5;exitY=1;exitDx=0;exitDy=0;" edge="1" parent="1" source="kobAwIntnLrDHxQ9oPHN-8">
          <mxGeometry width="50" height="50" relative="1" as="geometry">
            <mxPoint x="350" y="490" as="sourcePoint" />
            <mxPoint x="600" y="640" as="targetPoint" />
          </mxGeometry>
        </mxCell>
        <mxCell id="kobAwIntnLrDHxQ9oPHN-27" value="Deltas between the two system" style="text;html=1;align=center;verticalAlign=middle;resizable=0;points=[];autosize=1;strokeColor=none;fillColor=none;" vertex="1" parent="1">
          <mxGeometry x="335" y="55" width="190" height="30" as="geometry" />
        </mxCell>
      </root>
    </mxGraphModel>
  </diagram>
</mxfile>
